<svg width="32" height="32" viewBox="0 0 32 32" fill="none" xmlns="http://www.w3.org/2000/svg">
<path d="M28.4947 11.2666C27.0947 5.10659 21.7213 2.33325 17.0013 2.33325H16.988C12.2813 2.33325 6.89468 5.09325 5.49468 11.2533C3.93468 18.1333 8.14801 23.9599 11.9613 27.6266C13.313 28.9348 15.1203 29.6664 17.0013 29.6666C18.8147 29.6666 20.628 28.9866 22.028 27.6266C25.8413 23.9599 30.0547 18.1466 28.4947 11.2666ZM17.0013 17.9466C16.4498 17.9466 15.9036 17.8379 15.3941 17.6269C14.8845 17.4158 14.4215 17.1064 14.0315 16.7164C13.6415 16.3264 13.3321 15.8634 13.1211 15.3539C12.91 14.8443 12.8013 14.2981 12.8013 13.7466C12.8013 13.195 12.91 12.6489 13.1211 12.1393C13.3321 11.6297 13.6415 11.1667 14.0315 10.7767C14.4215 10.3867 14.8845 10.0774 15.3941 9.86629C15.9036 9.65522 16.4498 9.54659 17.0013 9.54659C18.1153 9.54659 19.1835 9.98908 19.9712 10.7767C20.7588 11.5644 21.2013 12.6327 21.2013 13.7466C21.2013 14.8605 20.7588 15.9288 19.9712 16.7164C19.1835 17.5041 18.1153 17.9466 17.0013 17.9466Z" fill="#0A2647"/>
</svg>
