<svg width="200" height="48" viewBox="0 0 200 48" fill="none" xmlns="http://www.w3.org/2000/svg">
<path d="M18.9119 38.1887C19.0406 38.1568 19.151 38.129 19.2405 38.1062C22.025 38.0592 24.4793 37.3166 26.2902 35.7908C28.206 34.1768 29.1667 31.8809 29.1667 29.3007C29.1667 27.0087 28.2304 24.8152 26.5945 23.2777C27.8373 21.9339 28.6143 20.102 28.6143 17.8611C28.6143 15.3343 27.6283 13.1138 25.7314 11.5694C23.9229 10.0971 21.4839 9.39513 18.7483 9.36707L18.7376 9.36544C18.6269 9.34855 18.466 9.32424 18.2633 9.29424C17.8581 9.23425 17.2848 9.15135 16.6096 9.05926C15.2639 8.87575 13.4932 8.65297 11.8356 8.50348C10.2583 8.36122 8.53741 8.25939 7.42652 8.40388C7.14346 8.4407 6.74343 8.51097 6.35134 8.67971C6.05616 8.80675 5.08283 9.28557 4.86937 10.4865C4.66248 11.6505 5.36665 12.4358 5.59035 12.6646C5.89037 12.9715 6.24697 13.2097 6.55345 13.3909C6.558 13.3972 6.70183 13.5211 6.89615 13.9684C7.11754 14.478 7.31935 15.2137 7.47338 16.1765C7.78048 18.096 7.84676 20.5826 7.72691 23.195C7.60777 25.7918 7.30912 28.4227 6.92454 30.5989C6.52042 32.8857 6.07212 34.3615 5.78111 34.8772C5.34888 35.6431 4.93358 36.9803 5.82998 38.2188C6.53436 39.192 7.65042 39.4575 8.23385 39.5568C9.56684 39.7837 11.3412 39.6207 12.8767 39.4015C14.4924 39.1708 16.1517 38.8284 17.3918 38.5484C18.0155 38.4076 18.5409 38.2807 18.9119 38.1887ZM7.91063 12.7131C7.91057 12.7131 7.91277 12.7125 7.91741 12.7116C7.91302 12.7127 7.9107 12.7131 7.91063 12.7131ZM15.7379 28.1646V27.9208H17.8519C18.4889 27.9208 18.7252 28.0843 18.7683 28.1212C18.7878 28.1379 18.8005 28.1535 18.8141 28.1855C18.8298 28.2226 18.8611 28.3181 18.8611 28.501C18.8611 28.6503 18.8398 28.8459 18.7928 29.055C17.7718 28.3285 16.6869 28.1254 15.7379 28.1646ZM19.535 29.6811C19.535 29.6812 19.534 29.6806 19.532 29.6792C19.534 29.6804 19.5349 29.6811 19.535 29.6811ZM15.7379 18.5662V18.4631H17.4376C17.9663 18.4631 18.1851 18.5635 18.2426 18.5962C18.2533 18.6286 18.2743 18.7126 18.2743 18.8695C18.2743 18.9081 18.2606 19.0244 18.2002 19.1935C17.3892 18.6652 16.4908 18.5407 15.7379 18.5662ZM17.7785 19.8694C17.7784 19.8689 17.784 19.864 17.7954 19.8563C17.7842 19.8661 17.7785 19.87 17.7785 19.8694Z" stroke="white" stroke-width="4.33333"/>
<path d="M47.1328 24.2891H42.7852L42.7617 22.1445H46.5586C47.1992 22.1445 47.7422 22.0508 48.1875 21.8633C48.6406 21.668 48.9844 21.3906 49.2188 21.0312C49.4531 20.6641 49.5703 20.2227 49.5703 19.707C49.5703 19.1367 49.4609 18.6719 49.2422 18.3125C49.0234 17.9531 48.6875 17.6914 48.2344 17.5273C47.7891 17.3633 47.2188 17.2812 46.5234 17.2812H43.6758V32H40.7344V14.9375H46.5234C47.4609 14.9375 48.2969 15.0273 49.0312 15.207C49.7734 15.3867 50.4023 15.668 50.918 16.0508C51.4414 16.4258 51.8359 16.9023 52.1016 17.4805C52.375 18.0586 52.5117 18.7461 52.5117 19.543C52.5117 20.2461 52.3438 20.8906 52.0078 21.4766C51.6719 22.0547 51.1758 22.5273 50.5195 22.8945C49.8633 23.2617 49.0469 23.4805 48.0703 23.5508L47.1328 24.2891ZM47.0039 32H41.8594L43.1836 29.668H47.0039C47.668 29.668 48.2227 29.5586 48.668 29.3398C49.1133 29.1133 49.4453 28.8047 49.6641 28.4141C49.8906 28.0156 50.0039 27.5508 50.0039 27.0195C50.0039 26.4648 49.9062 25.9844 49.7109 25.5781C49.5156 25.1641 49.207 24.8477 48.7852 24.6289C48.3633 24.4023 47.8125 24.2891 47.1328 24.2891H43.8281L43.8516 22.1445H48.1523L48.8203 22.9531C49.7578 22.9844 50.5273 23.1914 51.1289 23.5742C51.7383 23.957 52.1914 24.4531 52.4883 25.0625C52.7852 25.6719 52.9336 26.3281 52.9336 27.0312C52.9336 28.1172 52.6953 29.0273 52.2188 29.7617C51.75 30.4961 51.0742 31.0547 50.1914 31.4375C49.3086 31.8125 48.2461 32 47.0039 32ZM58.4531 21.7344V32H55.6289V19.3203H58.3242L58.4531 21.7344ZM62.332 19.2383L62.3086 21.8633C62.1367 21.832 61.9492 21.8086 61.7461 21.793C61.5508 21.7773 61.3555 21.7695 61.1602 21.7695C60.6758 21.7695 60.25 21.8398 59.8828 21.9805C59.5156 22.1133 59.207 22.3086 58.957 22.5664C58.7148 22.8164 58.5273 23.1211 58.3945 23.4805C58.2617 23.8398 58.1836 24.2422 58.1602 24.6875L57.5156 24.7344C57.5156 23.9375 57.5938 23.1992 57.75 22.5195C57.9062 21.8398 58.1406 21.2422 58.4531 20.7266C58.7734 20.2109 59.1719 19.8086 59.6484 19.5195C60.1328 19.2305 60.6914 19.0859 61.3242 19.0859C61.4961 19.0859 61.6797 19.1016 61.875 19.1328C62.0781 19.1641 62.2305 19.1992 62.332 19.2383ZM67.125 19.3203V32H64.2891V19.3203H67.125ZM64.1016 15.9922C64.1016 15.5625 64.2422 15.207 64.5234 14.9258C64.8125 14.6367 65.2109 14.4922 65.7188 14.4922C66.2188 14.4922 66.6133 14.6367 66.9023 14.9258C67.1914 15.207 67.3359 15.5625 67.3359 15.9922C67.3359 16.4141 67.1914 16.7656 66.9023 17.0469C66.6133 17.3281 66.2188 17.4688 65.7188 17.4688C65.2109 17.4688 64.8125 17.3281 64.5234 17.0469C64.2422 16.7656 64.1016 16.4141 64.1016 15.9922ZM78.3398 19.3203H80.9062V31.6484C80.9062 32.7891 80.6641 33.7578 80.1797 34.5547C79.6953 35.3516 79.0195 35.957 78.1523 36.3711C77.2852 36.793 76.2812 37.0039 75.1406 37.0039C74.6562 37.0039 74.1172 36.9336 73.5234 36.793C72.9375 36.6523 72.3672 36.4258 71.8125 36.1133C71.2656 35.8086 70.8086 35.4062 70.4414 34.9062L71.7656 33.2422C72.2188 33.7812 72.7188 34.1758 73.2656 34.4258C73.8125 34.6758 74.3867 34.8008 74.9883 34.8008C75.6367 34.8008 76.1875 34.6797 76.6406 34.4375C77.1016 34.2031 77.457 33.8555 77.707 33.3945C77.957 32.9336 78.082 32.3711 78.082 31.707V22.1914L78.3398 19.3203ZM69.7266 25.8008V25.5547C69.7266 24.5938 69.8438 23.7188 70.0781 22.9297C70.3125 22.1328 70.6484 21.4492 71.0859 20.8789C71.5234 20.3008 72.0547 19.8594 72.6797 19.5547C73.3047 19.2422 74.0117 19.0859 74.8008 19.0859C75.6211 19.0859 76.3203 19.2344 76.8984 19.5312C77.4844 19.8281 77.9727 20.2539 78.3633 20.8086C78.7539 21.3555 79.0586 22.0117 79.2773 22.7773C79.5039 23.5352 79.6719 24.3789 79.7812 25.3086V26.0938C79.6797 27 79.5078 27.8281 79.2656 28.5781C79.0234 29.3281 78.7031 29.9766 78.3047 30.5234C77.9062 31.0703 77.4141 31.4922 76.8281 31.7891C76.25 32.0859 75.5664 32.2344 74.7773 32.2344C74.0039 32.2344 73.3047 32.0742 72.6797 31.7539C72.0625 31.4336 71.5312 30.9844 71.0859 30.4062C70.6484 29.8281 70.3125 29.1484 70.0781 28.3672C69.8438 27.5781 69.7266 26.7227 69.7266 25.8008ZM72.5508 25.5547V25.8008C72.5508 26.3789 72.6055 26.918 72.7148 27.418C72.832 27.918 73.0078 28.3594 73.2422 28.7422C73.4844 29.1172 73.7891 29.4141 74.1562 29.6328C74.5312 29.8438 74.9727 29.9492 75.4805 29.9492C76.1445 29.9492 76.6875 29.8086 77.1094 29.5273C77.5391 29.2461 77.8672 28.8672 78.0938 28.3906C78.3281 27.9062 78.4922 27.3672 78.5859 26.7734V24.6523C78.5391 24.1914 78.4414 23.7617 78.293 23.3633C78.1523 22.9648 77.9609 22.6172 77.7188 22.3203C77.4766 22.0156 77.1719 21.7812 76.8047 21.6172C76.4375 21.4453 76.0039 21.3594 75.5039 21.3594C74.9961 21.3594 74.5547 21.4688 74.1797 21.6875C73.8047 21.9062 73.4961 22.207 73.2539 22.5898C73.0195 22.9727 72.8438 23.418 72.7266 23.9258C72.6094 24.4336 72.5508 24.9766 72.5508 25.5547ZM86.625 14V32H83.8125V14H86.625ZM86.1328 25.1914L85.2188 25.1797C85.2266 24.3047 85.3477 23.4961 85.582 22.7539C85.8242 22.0117 86.1602 21.3672 86.5898 20.8203C87.0273 20.2656 87.5508 19.8398 88.1602 19.543C88.7695 19.2383 89.4453 19.0859 90.1875 19.0859C90.8125 19.0859 91.375 19.1719 91.875 19.3438C92.3828 19.5156 92.8203 19.793 93.1875 20.1758C93.5547 20.5508 93.832 21.043 94.0195 21.6523C94.2148 22.2539 94.3125 22.9883 94.3125 23.8555V32H91.4766V23.832C91.4766 23.2227 91.3867 22.7383 91.207 22.3789C91.0352 22.0195 90.7812 21.7617 90.4453 21.6055C90.1094 21.4414 89.6992 21.3594 89.2148 21.3594C88.707 21.3594 88.2578 21.4609 87.8672 21.6641C87.4844 21.8672 87.1641 22.1445 86.9062 22.4961C86.6484 22.8477 86.4531 23.2539 86.3203 23.7148C86.1953 24.1758 86.1328 24.668 86.1328 25.1914ZM102.984 19.3203V21.3828H95.8359V19.3203H102.984ZM97.8984 16.2148H100.723V28.4961C100.723 28.8867 100.777 29.1875 100.887 29.3984C101.004 29.6016 101.164 29.7383 101.367 29.8086C101.57 29.8789 101.809 29.9141 102.082 29.9141C102.277 29.9141 102.465 29.9023 102.645 29.8789C102.824 29.8555 102.969 29.832 103.078 29.8086L103.09 31.9648C102.855 32.0352 102.582 32.0977 102.27 32.1523C101.965 32.207 101.613 32.2344 101.215 32.2344C100.566 32.2344 99.9922 32.1211 99.4922 31.8945C98.9922 31.6602 98.6016 31.2812 98.3203 30.7578C98.0391 30.2344 97.8984 29.5391 97.8984 28.6719V16.2148ZM122.695 22.0625V24.3945H113.637V22.0625H122.695ZM114.363 14.9375V32H111.422V14.9375H114.363ZM124.957 14.9375V32H122.027V14.9375H124.957ZM127.641 25.8008V25.5312C127.641 24.6172 127.773 23.7695 128.039 22.9883C128.305 22.1992 128.688 21.5156 129.188 20.9375C129.695 20.3516 130.312 19.8984 131.039 19.5781C131.773 19.25 132.602 19.0859 133.523 19.0859C134.453 19.0859 135.281 19.25 136.008 19.5781C136.742 19.8984 137.363 20.3516 137.871 20.9375C138.379 21.5156 138.766 22.1992 139.031 22.9883C139.297 23.7695 139.43 24.6172 139.43 25.5312V25.8008C139.43 26.7148 139.297 27.5625 139.031 28.3438C138.766 29.125 138.379 29.8086 137.871 30.3945C137.363 30.9727 136.746 31.4258 136.02 31.7539C135.293 32.0742 134.469 32.2344 133.547 32.2344C132.617 32.2344 131.785 32.0742 131.051 31.7539C130.324 31.4258 129.707 30.9727 129.199 30.3945C128.691 29.8086 128.305 29.125 128.039 28.3438C127.773 27.5625 127.641 26.7148 127.641 25.8008ZM130.465 25.5312V25.8008C130.465 26.3711 130.523 26.9102 130.641 27.418C130.758 27.9258 130.941 28.3711 131.191 28.7539C131.441 29.1367 131.762 29.4375 132.152 29.6562C132.543 29.875 133.008 29.9844 133.547 29.9844C134.07 29.9844 134.523 29.875 134.906 29.6562C135.297 29.4375 135.617 29.1367 135.867 28.7539C136.117 28.3711 136.301 27.9258 136.418 27.418C136.543 26.9102 136.605 26.3711 136.605 25.8008V25.5312C136.605 24.9688 136.543 24.4375 136.418 23.9375C136.301 23.4297 136.113 22.9805 135.855 22.5898C135.605 22.1992 135.285 21.8945 134.895 21.6758C134.512 21.4492 134.055 21.3359 133.523 21.3359C132.992 21.3359 132.531 21.4492 132.141 21.6758C131.758 21.8945 131.441 22.1992 131.191 22.5898C130.941 22.9805 130.758 23.4297 130.641 23.9375C130.523 24.4375 130.465 24.9688 130.465 25.5312ZM149.426 29.0117V19.3203H152.262V32H149.59L149.426 29.0117ZM149.824 26.375L150.773 26.3516C150.773 27.2031 150.68 27.9883 150.492 28.707C150.305 29.418 150.016 30.0391 149.625 30.5703C149.234 31.0938 148.734 31.5039 148.125 31.8008C147.516 32.0898 146.785 32.2344 145.934 32.2344C145.316 32.2344 144.75 32.1445 144.234 31.9648C143.719 31.7852 143.273 31.5078 142.898 31.1328C142.531 30.7578 142.246 30.2695 142.043 29.668C141.84 29.0664 141.738 28.3477 141.738 27.5117V19.3203H144.562V27.5352C144.562 27.9961 144.617 28.3828 144.727 28.6953C144.836 29 144.984 29.2461 145.172 29.4336C145.359 29.6211 145.578 29.7539 145.828 29.832C146.078 29.9102 146.344 29.9492 146.625 29.9492C147.43 29.9492 148.062 29.793 148.523 29.4805C148.992 29.1602 149.324 28.7305 149.52 28.1914C149.723 27.6523 149.824 27.0469 149.824 26.375ZM162.27 28.5664C162.27 28.2852 162.199 28.0312 162.059 27.8047C161.918 27.5703 161.648 27.3594 161.25 27.1719C160.859 26.9844 160.281 26.8125 159.516 26.6562C158.844 26.5078 158.227 26.332 157.664 26.1289C157.109 25.918 156.633 25.6641 156.234 25.3672C155.836 25.0703 155.527 24.7188 155.309 24.3125C155.09 23.9062 154.98 23.4375 154.98 22.9062C154.98 22.3906 155.094 21.9023 155.32 21.4414C155.547 20.9805 155.871 20.5742 156.293 20.2227C156.715 19.8711 157.227 19.5938 157.828 19.3906C158.438 19.1875 159.117 19.0859 159.867 19.0859C160.93 19.0859 161.84 19.2656 162.598 19.625C163.363 19.9766 163.949 20.457 164.355 21.0664C164.762 21.668 164.965 22.3477 164.965 23.1055H162.141C162.141 22.7695 162.055 22.457 161.883 22.168C161.719 21.8711 161.469 21.6328 161.133 21.4531C160.797 21.2656 160.375 21.1719 159.867 21.1719C159.383 21.1719 158.98 21.25 158.66 21.4062C158.348 21.5547 158.113 21.75 157.957 21.9922C157.809 22.2344 157.734 22.5 157.734 22.7891C157.734 23 157.773 23.1914 157.852 23.3633C157.938 23.5273 158.078 23.6797 158.273 23.8203C158.469 23.9531 158.734 24.0781 159.07 24.1953C159.414 24.3125 159.844 24.4258 160.359 24.5352C161.328 24.7383 162.16 25 162.855 25.3203C163.559 25.6328 164.098 26.0391 164.473 26.5391C164.848 27.0312 165.035 27.6562 165.035 28.4141C165.035 28.9766 164.914 29.4922 164.672 29.9609C164.438 30.4219 164.094 30.8242 163.641 31.168C163.188 31.5039 162.645 31.7656 162.012 31.9531C161.387 32.1406 160.684 32.2344 159.902 32.2344C158.754 32.2344 157.781 32.0312 156.984 31.625C156.188 31.2109 155.582 30.6836 155.168 30.043C154.762 29.3945 154.559 28.7227 154.559 28.0273H157.289C157.32 28.5508 157.465 28.9688 157.723 29.2812C157.988 29.5859 158.316 29.8086 158.707 29.9492C159.105 30.082 159.516 30.1484 159.938 30.1484C160.445 30.1484 160.871 30.082 161.215 29.9492C161.559 29.8086 161.82 29.6211 162 29.3867C162.18 29.1445 162.27 28.8711 162.27 28.5664ZM170.531 19.3203V32H167.695V19.3203H170.531ZM167.508 15.9922C167.508 15.5625 167.648 15.207 167.93 14.9258C168.219 14.6367 168.617 14.4922 169.125 14.4922C169.625 14.4922 170.02 14.6367 170.309 14.9258C170.598 15.207 170.742 15.5625 170.742 15.9922C170.742 16.4141 170.598 16.7656 170.309 17.0469C170.02 17.3281 169.625 17.4688 169.125 17.4688C168.617 17.4688 168.219 17.3281 167.93 17.0469C167.648 16.7656 167.508 16.4141 167.508 15.9922ZM176.426 22.0273V32H173.602V19.3203H176.262L176.426 22.0273ZM175.922 25.1914L175.008 25.1797C175.016 24.2812 175.141 23.457 175.383 22.707C175.633 21.957 175.977 21.3125 176.414 20.7734C176.859 20.2344 177.391 19.8203 178.008 19.5312C178.625 19.2344 179.312 19.0859 180.07 19.0859C180.68 19.0859 181.23 19.1719 181.723 19.3438C182.223 19.5078 182.648 19.7773 183 20.1523C183.359 20.5273 183.633 21.0156 183.82 21.6172C184.008 22.2109 184.102 22.9414 184.102 23.8086V32H181.266V23.7969C181.266 23.1875 181.176 22.707 180.996 22.3555C180.824 21.9961 180.57 21.7422 180.234 21.5938C179.906 21.4375 179.496 21.3594 179.004 21.3594C178.52 21.3594 178.086 21.4609 177.703 21.6641C177.32 21.8672 176.996 22.1445 176.73 22.4961C176.473 22.8477 176.273 23.2539 176.133 23.7148C175.992 24.1758 175.922 24.668 175.922 25.1914ZM195.105 19.3203H197.672V31.6484C197.672 32.7891 197.43 33.7578 196.945 34.5547C196.461 35.3516 195.785 35.957 194.918 36.3711C194.051 36.793 193.047 37.0039 191.906 37.0039C191.422 37.0039 190.883 36.9336 190.289 36.793C189.703 36.6523 189.133 36.4258 188.578 36.1133C188.031 35.8086 187.574 35.4062 187.207 34.9062L188.531 33.2422C188.984 33.7812 189.484 34.1758 190.031 34.4258C190.578 34.6758 191.152 34.8008 191.754 34.8008C192.402 34.8008 192.953 34.6797 193.406 34.4375C193.867 34.2031 194.223 33.8555 194.473 33.3945C194.723 32.9336 194.848 32.3711 194.848 31.707V22.1914L195.105 19.3203ZM186.492 25.8008V25.5547C186.492 24.5938 186.609 23.7188 186.844 22.9297C187.078 22.1328 187.414 21.4492 187.852 20.8789C188.289 20.3008 188.82 19.8594 189.445 19.5547C190.07 19.2422 190.777 19.0859 191.566 19.0859C192.387 19.0859 193.086 19.2344 193.664 19.5312C194.25 19.8281 194.738 20.2539 195.129 20.8086C195.52 21.3555 195.824 22.0117 196.043 22.7773C196.27 23.5352 196.438 24.3789 196.547 25.3086V26.0938C196.445 27 196.273 27.8281 196.031 28.5781C195.789 29.3281 195.469 29.9766 195.07 30.5234C194.672 31.0703 194.18 31.4922 193.594 31.7891C193.016 32.0859 192.332 32.2344 191.543 32.2344C190.77 32.2344 190.07 32.0742 189.445 31.7539C188.828 31.4336 188.297 30.9844 187.852 30.4062C187.414 29.8281 187.078 29.1484 186.844 28.3672C186.609 27.5781 186.492 26.7227 186.492 25.8008ZM189.316 25.5547V25.8008C189.316 26.3789 189.371 26.918 189.48 27.418C189.598 27.918 189.773 28.3594 190.008 28.7422C190.25 29.1172 190.555 29.4141 190.922 29.6328C191.297 29.8438 191.738 29.9492 192.246 29.9492C192.91 29.9492 193.453 29.8086 193.875 29.5273C194.305 29.2461 194.633 28.8672 194.859 28.3906C195.094 27.9062 195.258 27.3672 195.352 26.7734V24.6523C195.305 24.1914 195.207 23.7617 195.059 23.3633C194.918 22.9648 194.727 22.6172 194.484 22.3203C194.242 22.0156 193.938 21.7812 193.57 21.6172C193.203 21.4453 192.77 21.3594 192.27 21.3594C191.762 21.3594 191.32 21.4688 190.945 21.6875C190.57 21.9062 190.262 22.207 190.02 22.5898C189.785 22.9727 189.609 23.418 189.492 23.9258C189.375 24.4336 189.316 24.9766 189.316 25.5547Z" fill="white"/>
</svg>
