<svg width="32" height="32" viewBox="0 0 32 32" fill="none" xmlns="http://www.w3.org/2000/svg">
<path d="M29.7531 14.9012L23.7131 8.8612C23.0873 8.2336 22.3366 7.74436 21.5098 7.42511C20.683 7.10586 19.7983 6.96371 18.9131 7.00786L12.2465 7.32786C9.57978 7.44786 7.45978 9.56786 7.32645 12.2212L7.00645 18.8879C6.92645 20.6745 7.59312 22.4212 8.85978 23.6879L14.8998 29.7279C16.0945 30.919 17.7127 31.588 19.3998 31.588C21.0869 31.588 22.7051 30.919 23.8998 29.7279L29.7531 23.8745C30.3456 23.2872 30.816 22.5883 31.1369 21.8183C31.4579 21.0482 31.6231 20.2222 31.6231 19.3879C31.6231 18.5536 31.4579 17.7275 31.1369 16.9575C30.816 16.1874 30.3456 15.4885 29.7531 14.9012ZM15.9798 19.8079C13.8731 19.8079 12.1398 18.0879 12.1398 15.9679C12.1398 13.8479 13.8731 12.1279 15.9798 12.1279C18.0865 12.1279 19.8198 13.8479 19.8198 15.9679C19.8198 18.0879 18.0865 19.8079 15.9798 19.8079ZM26.6865 21.3412L21.3531 26.6745C21.1531 26.8745 20.8998 26.9679 20.6465 26.9679C20.3931 26.9679 20.1398 26.8745 19.9398 26.6745C19.7538 26.4863 19.6495 26.2324 19.6495 25.9679C19.6495 25.7033 19.7538 25.4494 19.9398 25.2612L25.2731 19.9279C25.6598 19.5412 26.2998 19.5412 26.6865 19.9279C27.0731 20.3145 27.0731 20.9545 26.6865 21.3412Z" fill="#0A2647"/>
</svg>
