<svg width="32" height="32" viewBox="0 0 32 32" fill="none" xmlns="http://www.w3.org/2000/svg">
<path d="M28.6667 14.5334V5.46675C28.6667 3.46675 27.8134 2.66675 25.6934 2.66675H20.3067C18.1867 2.66675 17.3334 3.46675 17.3334 5.46675V14.5334C17.3334 16.5334 18.1867 17.3334 20.3067 17.3334H25.6934C27.8134 17.3334 28.6667 16.5334 28.6667 14.5334ZM14.6667 17.4667V26.5334C14.6667 28.5334 13.8134 29.3334 11.6934 29.3334H6.30671C4.18671 29.3334 3.33337 28.5334 3.33337 26.5334V17.4667C3.33337 15.4667 4.18671 14.6667 6.30671 14.6667H11.6934C13.8134 14.6667 14.6667 15.4667 14.6667 17.4667ZM28.6667 26.5334V22.8001C28.6667 20.8001 27.8134 20.0001 25.6934 20.0001H20.3067C18.1867 20.0001 17.3334 20.8001 17.3334 22.8001V26.5334C17.3334 28.5334 18.1867 29.3334 20.3067 29.3334H25.6934C27.8134 29.3334 28.6667 28.5334 28.6667 26.5334ZM14.6667 9.20008V5.46675C14.6667 3.46675 13.8134 2.66675 11.6934 2.66675H6.30671C4.18671 2.66675 3.33337 3.46675 3.33337 5.46675V9.20008C3.33337 11.2001 4.18671 12.0001 6.30671 12.0001H11.6934C13.8134 12.0001 14.6667 11.2001 14.6667 9.20008Z" fill="#0A2647"/>
</svg>
